<svg xmlns="http://www.w3.org/2000/svg" xmlns:xlink="http://www.w3.org/1999/xlink" width="14" height="14" viewBox="0 0 14 14">
     <path fill="#ec7000" fill-rule="evenodd" d="M13.677.323c.215.215.323.463.323.744 0 .282-.108.53-.323.745L8.49 7l5.188 5.188c.215.215.323.463.323.745 0 .28-.108.53-.323.744a1.023 1.023 0 0 1-.744.323c-.282 0-.53-.108-.745-.323L7 8.49l-5.188 5.188a1.023 1.023 0 0 1-.745.323c-.28 0-.53-.108-.744-.323A1.023 1.023 0 0 1 0 12.933c0-.282.108-.53.323-.745L5.51 7 .323 1.812A1.023 1.023 0 0 1 0 1.067c0-.28.108-.53.323-.744C.538.108.786 0 1.067 0c.282 0 .53.108.745.323L7 5.51 12.188.323c.215-.215.463-.323.745-.323.28 0 .53.108.744.323z"/>
</svg>
